<svg width="49" height="48" viewBox="0 0 49 48" fill="none" xmlns="http://www.w3.org/2000/svg">
<g clip-path="url(#clip0_1_513)">
<path d="M27.2362 41.01L22.4715 36.42L18.0323 32.16L23.9512 31.29L30.61 30.33L31.4682 28.62H31.409C30.7298 28.6203 30.0711 28.3837 29.5435 27.95C29.016 27.5163 28.6517 26.9118 28.5117 26.238C28.5088 24.387 30.8763 24.987 32.7408 21.867C32.9776 21.807 41.0865 -0.00299835 24.5135 -0.00299835C7.94054 -0.00299835 16.0495 21.807 16.0495 21.807C17.9139 24.807 20.3111 24.357 20.2815 26.157C20.2519 27.957 18.0915 28.557 16.0495 28.767C12.6757 29.157 9.71621 28.377 6.75675 34.047C4.98108 37.317 4.24121 47.997 4.24121 47.997H26.0228V47.487L27.2362 41.01ZM35.5227 48H37.18L36.3513 47.58L35.5227 48Z" fill="#022C40"/>
<path d="M36.3514 44.19L43.6612 48L42.2703 39.93L48.1892 34.23L40.0211 33.06L36.3514 25.71L32.6816 33.06L24.5135 34.23L30.4324 39.93L29.0415 48L36.3514 44.19Z" fill="#022C40"/>
</g>
<defs>
<clipPath id="clip0_1_513">
<rect width="47.3514" height="48" fill="white" transform="translate(0.83783)"/>
</clipPath>
</defs>
</svg>
