<svg width="373" height="341" viewBox="0 0 373 341" fill="none" xmlns="http://www.w3.org/2000/svg">
<path d="M25.6661 192.974V42.1534H38.4142" stroke="#263238" stroke-linecap="round" stroke-linejoin="round"/>
<path d="M25.6749 217.631V212.133" stroke="#263238" stroke-linecap="round" stroke-linejoin="round"/>
<path d="M71.1863 42.1534H202.67V236.937H25.6661" stroke="#263238" stroke-linecap="round" stroke-linejoin="round"/>
<path d="M55.0621 42.1533H66.6161" stroke="#263238" stroke-linecap="round" stroke-linejoin="round"/>
<path d="M196.013 48.8447H32.3237V230.253H196.013V48.8447Z" stroke="#263238" stroke-linecap="round" stroke-linejoin="round"/>
<path d="M188.402 61.5713V132.127H39.9347V125.695" stroke="#263238" stroke-linecap="round" stroke-linejoin="round"/>
<path d="M39.9347 110.6V55.8479H188.402" stroke="#263238" stroke-linecap="round" stroke-linejoin="round"/>
<path d="M39.943 120.741V114.481" stroke="#263238" stroke-linecap="round" stroke-linejoin="round"/>
<path d="M163.335 139.545H196.013" stroke="#263238" stroke-linecap="round" stroke-linejoin="round"/>
<path d="M151.712 139.545H156.334" stroke="#263238" stroke-linecap="round" stroke-linejoin="round"/>
<path d="M32.3237 139.545H146.189" stroke="#263238" stroke-linecap="round" stroke-linejoin="round"/>
<path d="M105.943 132.127V128.738H119.627V130.666H114.172V132.127" stroke="#263238" stroke-linecap="round" stroke-linejoin="round"/>
<path d="M32.6072 200.348C32.6072 200.348 34.875 202.077 36.4728 212.539C36.4728 212.539 39.2217 195.827 42.5548 195.567C45.8878 195.308 45.1834 206.443 45.1834 206.443C45.1834 206.443 45.7332 200.954 48.3447 201.204C50.9561 201.455 48.3447 212.539 48.3447 212.539C48.3447 212.539 51.4801 203.893 54.4438 204.049C57.4075 204.204 52.4766 219.706 52.4766 219.706C52.4766 219.706 60.0877 214.155 63.1716 216.87C66.2555 219.585 61.4535 226.432 61.4535 226.432C61.4535 226.432 72.3719 224.046 74.0642 230.487" stroke="#263238" stroke-linecap="round" stroke-linejoin="round"/>
<path d="M74.0896 224.245C74.0896 224.245 78.8486 221.106 82.5854 222.567C82.5854 222.567 80.2059 218.919 82.5854 216.688C84.965 214.458 88.0231 222.567 88.0231 222.567C88.0231 222.567 88.3667 208.985 93.1258 209.668C97.8848 210.351 93.1258 222.567 93.1258 222.567C93.1258 222.567 101.622 214.994 103.658 217.631C105.693 220.268 102.3 224.245 102.3 224.245C102.3 224.245 107.394 222.602 111.131 226.432C111.131 226.432 116.827 220.579 123.158 219.74C123.158 219.74 118.948 207.446 120.993 204.965C123.037 202.484 126.731 215.694 126.731 215.694C126.731 215.694 128.355 207.101 133.672 206.443C133.672 206.443 129.24 204.014 130.554 200.348C131.868 196.683 137.985 201.213 137.985 201.213C137.985 201.213 135.468 194.755 139.445 192.982C143.422 191.21 145.08 198.386 145.08 198.386C145.08 198.386 146.188 190.864 150.861 191.279C155.535 191.694 154.023 200.357 154.023 200.357C154.023 200.357 158.43 193.441 160.792 194.176C165.508 195.576 164.073 206.452 164.073 206.452C164.073 206.452 170.662 201.844 172.354 203.962C174.184 206.253 165.482 212.141 165.482 212.141C165.482 212.141 172.019 212.867 176.083 216.697" stroke="#263238" stroke-linecap="round" stroke-linejoin="round"/>
<path d="M196.013 202.83C196.013 202.83 195.265 195.913 188.402 195.568C181.538 195.222 190.292 210.697 190.292 210.697C190.292 210.697 184.631 205.985 182.603 207.438C180.576 208.89 188.402 216.87 188.402 216.87C188.402 216.87 184.648 213.412 180.67 214.458C176.693 215.504 182.93 226.648 182.93 226.648C177.051 225.454 170.947 226.171 165.5 228.697" stroke="#263238" stroke-linecap="round" stroke-linejoin="round"/>
<path d="M264.289 295.597V209.418H360.707" stroke="#263238" stroke-linecap="round" stroke-linejoin="round"/>
<path d="M357.201 218.332H272.045V298.605" stroke="#263238" stroke-linecap="round" stroke-linejoin="round"/>
<path d="M289.089 262.112V226.432H294.664V233.79H302.103V230.487H308.752V234.49H317.729V226.432H326.912V231.844H331.86V228.697H340.726V249.715" stroke="#263238" stroke-linecap="round" stroke-linejoin="round"/>
<path d="M331.86 231.844V262.112" stroke="#263238" stroke-linecap="round" stroke-linejoin="round"/>
<path d="M327.625 236.375V241.778" stroke="#263238" stroke-linecap="round" stroke-linejoin="round"/>
<path d="M327.625 245.651V267.844" stroke="#263238" stroke-linecap="round" stroke-linejoin="round"/>
<path d="M317.729 234.499V254.435" stroke="#263238" stroke-linecap="round" stroke-linejoin="round"/>
<path d="M318.073 261.005V267.213" stroke="#263238" stroke-linecap="round" stroke-linejoin="round"/>
<path d="M308.752 234.499V245.651" stroke="#263238" stroke-linecap="round" stroke-linejoin="round"/>
<path d="M308.752 252.508V276.006" stroke="#263238" stroke-linecap="round" stroke-linejoin="round"/>
<path d="M302.103 233.79V261.49" stroke="#263238" stroke-linecap="round" stroke-linejoin="round"/>
<path d="M294.664 233.79V244.268" stroke="#263238" stroke-linecap="round" stroke-linejoin="round"/>
<path d="M294.664 249.715V274.623" stroke="#263238" stroke-linecap="round" stroke-linejoin="round"/>
<path d="M289.089 267.213V278.461" stroke="#263238" stroke-linecap="round" stroke-linejoin="round"/>
<path d="M277.586 278.461H345.261" stroke="#263238" stroke-linecap="round" stroke-linejoin="round"/>
<path d="M331.86 278.461V271.259" stroke="#263238" stroke-linecap="round" stroke-linejoin="round"/>
<path d="M318.073 273.161V278.124" stroke="#263238" stroke-linecap="round" stroke-linejoin="round"/>
<path d="M341.481 237.94H348.044" stroke="#263238" stroke-linecap="round" stroke-linejoin="round"/>
<path d="M277.844 284.738H340.725" stroke="#263238" stroke-linecap="round" stroke-linejoin="round"/>
<path d="M291.339 303.04V294.654H302.988V300.057H312.36V310.596H317.729V294.974H329.626V298.605H336.937" stroke="#263238" stroke-linecap="round" stroke-linejoin="round"/>
<path d="M329.626 298.605V307.596" stroke="#263238" stroke-linecap="round" stroke-linejoin="round"/>
<path d="M318.073 314.4V320.452" stroke="#263238" stroke-linecap="round" stroke-linejoin="round"/>
<path d="M312.36 310.596V318.568" stroke="#263238" stroke-linecap="round" stroke-linejoin="round"/>
<path d="M302.988 300.057V304.631" stroke="#263238" stroke-linecap="round" stroke-linejoin="round"/>
<path d="M357.493 25.468H151.635V168.612H357.493V25.468Z" fill="#275F7A" stroke="#263238" stroke-linecap="round" stroke-linejoin="round"/>
<path d="M357.493 25.468H151.635V39.6207H357.493V25.468Z" fill="#263238"/>
<path d="M235.03 123.612L230.202 116.851C230.201 115.439 230.13 114.028 229.987 112.624C229.807 111.993 226.878 107.35 226.809 106.252C226.798 105.728 226.732 105.206 226.611 104.696C226.611 104.696 225.108 105.076 225.125 106.001C225.142 106.926 225.306 110.047 225.306 110.047C225.306 110.047 221.389 107.748 220.95 107.143C220.512 106.537 215.736 103.01 215.289 102.483C214.843 101.955 213.022 101.921 212.807 102.483L213.064 103.131L211.561 103.849L212.566 106.849C212.279 107.524 212.105 108.243 212.051 108.975C212.214 109.347 212.747 111.569 212.747 111.569C212.747 111.569 212.42 111.906 212.463 113.082C212.506 114.258 218.923 120.266 220.194 120.915C221.713 121.557 223.268 122.108 224.85 122.566L228.879 127.814L235.03 123.612Z" fill="white" stroke="#263238" stroke-linecap="round" stroke-linejoin="round"/>
<path d="M225.297 110.047C224.547 111.765 224.355 113.677 224.747 115.511" stroke="#263238" stroke-linecap="round" stroke-linejoin="round"/>
<path d="M213.056 103.131C214.353 103.632 215.977 106.07 216.724 106.822C217.4 107.436 218.124 107.994 218.889 108.491" stroke="#263238" stroke-linecap="round" stroke-linejoin="round"/>
<path d="M212.557 106.822C213.623 106.598 214.344 107.013 214.318 108.059C214.293 109.105 216.595 110.696 216.595 110.696" stroke="#263238" stroke-linecap="round" stroke-linejoin="round"/>
<path d="M212.738 111.543C212.738 111.543 213.485 110.203 214.078 110.817C214.671 111.431 214.86 113.004 215.951 113.333" stroke="#263238" stroke-linecap="round" stroke-linejoin="round"/>
<path d="M297.808 116.263C297.808 116.263 280.859 117.318 277.122 118.857C274.056 120.128 252.485 134.419 252.485 134.419C252.485 134.419 239.797 124.788 236.112 121.451C235.401 121.105 234.637 120.883 233.853 120.794L231.92 119.557L227.169 126.292L228.501 128.151C228.501 128.151 228.716 131.151 229.308 131.903C237.194 141.871 252.296 155.825 254.564 157.2C256.832 158.574 276.95 146.592 276.95 146.592L280.687 168.638H340.691C340.691 168.638 340.536 129.949 338.011 126.984C335.485 124.018 306.536 112.39 306.536 112.39L297.808 116.263Z" fill="#757575" stroke="#263238" stroke-linecap="round" stroke-linejoin="round"/>
<path d="M318.073 102.266C318.073 102.266 312.695 105.897 315.547 117.5C315.547 117.5 307.446 123.327 299.432 117.448C299.432 117.448 301.279 108.197 299.432 106.338" fill="white"/>
<path d="M318.073 102.266C318.073 102.266 312.695 105.897 315.547 117.5C315.547 117.5 307.446 123.327 299.432 117.448C299.432 117.448 301.279 108.197 299.432 106.338" stroke="#263238" stroke-linecap="round" stroke-linejoin="round"/>
<path d="M336.937 128.782C336.937 128.782 329.626 137.246 328.776 151.736" stroke="#263238" stroke-linecap="round" stroke-linejoin="round"/>
<path d="M304.766 79.019C304.766 79.019 299.973 78.2927 298.298 84.2063C297.322 87.8279 297.717 91.6851 299.406 95.0304L308.219 86.7048L304.766 79.019Z" fill="#263238"/>
<path d="M316.432 105.794C322.608 98.3757 326.972 86.0127 317.695 81.0761C299.792 71.5487 293.874 90.1625 296.88 107.453C297.808 112.788 305.007 110.41 310.272 108.482" fill="white"/>
<path d="M316.432 105.794C322.608 98.3757 326.972 86.0126 317.695 81.0761C299.792 71.5487 293.874 90.1625 296.88 107.453C297.808 112.788 305.007 110.41 310.272 108.482" stroke="#263238" stroke-linecap="round" stroke-linejoin="round"/>
<path d="M303.924 89.6697C303.924 89.6697 306.879 90.4737 307.626 92.0645" stroke="#263238" stroke-linecap="round" stroke-linejoin="round"/>
<path d="M299.646 88.8833C299.298 88.7106 298.911 88.6311 298.523 88.6523C298.135 88.6735 297.758 88.7947 297.43 89.0043" stroke="#263238" stroke-linecap="round" stroke-linejoin="round"/>
<path d="M303.873 93.7675C303.821 94.2949 304.053 94.7531 304.388 94.7877C304.723 94.8223 305.041 94.4159 305.092 93.9231C305.144 93.4303 304.912 92.9289 304.577 92.8943C304.242 92.8597 303.924 93.2315 303.873 93.7675Z" fill="#263238"/>
<path d="M297.464 92.1685C297.421 92.7045 297.653 93.1627 297.988 93.1973C298.323 93.2319 298.641 92.8255 298.693 92.3327C298.744 91.8399 298.512 91.3472 298.169 91.3126C297.825 91.278 297.516 91.6411 297.464 92.1685Z" fill="#263238"/>
<path d="M313.674 97.2345C313.674 97.2345 310.9 101.281 309.036 102.577C307.831 103.354 306.38 103.644 304.972 103.39C304.972 103.39 302.593 100.433 299.122 100.39C298.224 99.8145 297.202 99.4619 296.142 99.3613L296.339 94.8484C296.339 94.8484 293.702 104.523 293.951 107.99C294.2 111.456 302.67 113.86 306.905 112.892C311.14 111.923 313.296 105.292 314.585 99.0587C314.68 98.54 313.674 97.2345 313.674 97.2345Z" fill="#263238"/>
<path d="M296.657 102.621C296.657 102.621 300.007 104.237 302.988 103.857" stroke="white" stroke-linecap="round" stroke-linejoin="round"/>
<path d="M316.449 84.906C317.549 84.0414 314.731 80.3239 313.15 80.4017C311.57 80.4795 303.813 80.7735 303.813 80.7735C303.813 80.7735 302.18 72.1798 315.238 76.8225C317.377 77.5833 318.064 79.5977 319.98 80.6265C321.895 81.6553 324.49 87.0674 323.751 91.6841C323.012 96.3008 320.564 104.402 316.123 106.831C316.123 106.831 314.593 106.675 315.521 105.612C319.894 100.658 315.315 91.3383 314.585 99.0414L313.047 98.1163C313.035 97.2705 313.122 96.4261 313.305 95.6005C313.631 93.4823 311.303 89.1509 316.449 84.906Z" fill="#263238"/>
<path d="M315.779 96.6727C315.779 96.6727 318.588 93.3182 320.289 94.4595C321.99 95.6007 320.847 99.6467 319.937 100.658C319.026 101.67 318.287 101.895 317.025 103.511C315.762 105.128 314.173 104.583 314.448 103.286" fill="white"/>
<path d="M315.779 96.6727C315.779 96.6727 318.588 93.3182 320.289 94.4595C321.99 95.6007 320.847 99.6467 319.937 100.658C319.026 101.67 318.287 101.895 317.025 103.511C315.762 105.128 314.173 104.583 314.448 103.286" stroke="#263238" stroke-linecap="round" stroke-linejoin="round"/>
<path d="M307.189 94.2001C307.283 96.0762 306.149 97.6583 304.612 97.7361C303.074 97.8139 301.82 96.3615 301.725 94.4854C301.631 92.6093 302.765 91.0272 304.302 90.9494C305.84 90.8716 307.077 92.324 307.189 94.2001Z" stroke="#263238" stroke-width="0.5" stroke-miterlimit="10"/>
<path d="M299.268 92.4966C299.371 94.3727 298.229 95.9548 296.734 96.0413C295.239 96.1277 293.942 94.658 293.839 92.7819C293.736 90.9058 294.887 89.3237 296.416 89.2459C297.945 89.1681 299.174 90.6205 299.268 92.4966Z" stroke="#263238" stroke-width="0.5" stroke-miterlimit="10"/>
<path d="M300.084 90.8889C300.084 91.7535 295.635 96.863 295.583 97.9869C295.532 99.1108 299.724 99.1799 299.724 99.1799" fill="white"/>
<path d="M300.084 90.8889C300.084 91.7535 295.635 96.863 295.583 97.9869C295.532 99.1108 299.724 99.1799 299.724 99.1799" stroke="#263238" stroke-linecap="round" stroke-linejoin="round"/>
<path d="M299.268 92.4968C299.268 92.4968 300.6 92.1597 301.717 93.9666" stroke="#263238" stroke-width="0.5" stroke-miterlimit="10"/>
<path d="M307.206 94.8572L308.649 95.0733L316.75 95.6439" stroke="#263238" stroke-width="0.5" stroke-miterlimit="10"/>
<path d="M331.86 133.39L330.245 131.375C330.245 131.375 316.638 132.94 310.624 141.101C310.624 141.101 299.457 135.793 289.406 138.378L289.114 142.001L311.097 155.237L319.687 151.64L331.86 133.39Z" fill="white" stroke="#263238" stroke-linecap="round" stroke-linejoin="round"/>
<path d="M334.068 132.17L331.748 147.732C331.748 147.732 318.949 153.386 316.286 157.934L315.65 158.02L312.644 158.444L311.02 157.96C307.047 156.796 303.001 155.906 298.908 155.297C297.487 155.076 296.046 155.021 294.612 155.133L285.953 141.551C285.953 141.551 299.346 139.683 308.606 142.874L313.039 142.562L313.202 142.424C314.533 141.326 323.863 133.865 334.068 132.17Z" fill="#275F7A"/>
<path opacity="0.3" d="M315.478 154.39L313.202 142.416C314.525 141.326 323.854 133.865 334.059 132.171L331.74 147.733C331.74 147.733 318.94 153.387 316.277 157.934L315.642 158.021L315.478 154.39Z" fill="black" fill-opacity="0.7"/>
<path opacity="0.3" d="M311.072 155.237L311.011 157.952C307.039 156.788 302.992 155.899 298.899 155.289C299.081 152.543 300.148 149.932 301.939 147.852C303.729 145.772 306.146 144.337 308.821 143.765L311.072 155.237Z" fill="black" fill-opacity="0.7"/>
<path d="M334.068 132.17L331.748 147.732C331.748 147.732 318.949 153.386 316.286 157.934L315.65 158.02L312.644 158.444L311.02 157.96C307.047 156.796 303.001 155.906 298.908 155.297C297.487 155.076 296.046 155.021 294.612 155.133L285.953 141.551C285.953 141.551 299.346 139.683 308.606 142.874L313.039 142.562L313.202 142.424C314.533 141.326 323.863 133.865 334.068 132.17Z" stroke="#263238" stroke-linecap="round" stroke-linejoin="round"/>
<path d="M315.427 161.73C310.84 161.436 302.112 154.364 302.112 154.364C301.587 153.044 300.849 151.821 299.93 150.742C298.684 149.488 300.342 148.442 300.342 148.442C300.342 148.442 298.89 147.5 298.066 146.981C297.241 146.462 298.684 145.096 298.684 145.096C298.684 145.096 304.912 145.961 305.556 145.727C306.201 145.494 312.18 149.384 313.107 149.488C314.368 149.511 315.61 149.185 316.698 148.546C317.317 148.027 319.232 144.785 320.478 144.154C321.723 143.523 323.914 143.531 322.866 144.889C321.818 146.246 322.007 149.272 321.492 149.696C320.976 150.119 320.126 154.667 320.126 156.232L326.912 162.474L323.046 167.773L315.427 161.73Z" fill="white" stroke="#263238" stroke-linecap="round" stroke-linejoin="round"/>
<path d="M300.316 148.442C301.536 148.579 302.726 148.915 303.838 149.436" stroke="#263238" stroke-linecap="round" stroke-linejoin="round"/>
<path d="M304.938 150.914C304.938 150.914 304.552 152.497 304.448 152.739C304.345 152.981 305.728 154.528 305.531 155.237C305.333 155.946 306.931 157.831 306.931 157.831" stroke="#263238" stroke-linecap="round" stroke-linejoin="round"/>
<path d="M303.374 152.739C302.181 152.161 301.032 151.493 299.938 150.741" stroke="#263238" stroke-linecap="round" stroke-linejoin="round"/>
<path d="M300.05 113.367L303.022 119.393L315.238 112.58L317.927 118.615L305.462 126.577L303.065 120.344L298.22 125.038L296.58 117.448L300.05 113.367Z" fill="#757575" stroke="#263238" stroke-linecap="round" stroke-linejoin="round"/>
<path d="M338.045 126.958C341.009 130.148 351.549 153.542 352.563 168.612H320.452V167.263L316.947 165.197C316.947 165.197 319.121 157.502 325.314 158.704L327.118 161.297L331.113 164.323C331.113 164.323 338.123 164.505 340.159 166.537" fill="#757575"/>
<path d="M338.045 126.958C341.009 130.148 351.549 153.542 352.563 168.612H320.452V167.263L316.947 165.197C316.947 165.197 319.121 157.502 325.314 158.704L327.118 161.297L331.113 164.323C331.113 164.323 338.123 164.505 340.158 166.537" stroke="#263238" stroke-linecap="round" stroke-linejoin="round"/>
<path d="M331.113 164.358C331.113 164.358 335.004 158.712 340.725 161.098" stroke="#263238" stroke-linecap="round" stroke-linejoin="round"/>
<path d="M329.626 155.237C330.875 157.57 331.988 159.975 332.96 162.439" stroke="#263238" stroke-linecap="round" stroke-linejoin="round"/>
<path d="M276.951 146.566C276.951 146.566 274.571 132.612 275.233 127.788L276.951 146.566Z" fill="#757575"/>
<path d="M276.951 146.566C276.951 146.566 274.571 132.612 275.233 127.788" stroke="#263238" stroke-linecap="round" stroke-linejoin="round"/>
<path d="M272.192 133.226C272.192 133.226 273.515 140.082 276.487 143.756L272.192 133.226Z" fill="#757575"/>
<path d="M272.192 133.226C272.192 133.226 273.515 140.082 276.487 143.756" stroke="#263238" stroke-linecap="round" stroke-linejoin="round"/>
<path d="M252.485 134.427C252.485 134.427 256.222 137.54 253.843 145.304L252.485 134.427Z" fill="#757575"/>
<path d="M252.485 134.427C252.485 134.427 256.222 137.54 253.843 145.304" stroke="#263238" stroke-linecap="round" stroke-linejoin="round"/>
<path d="M302.455 125.28C302.455 125.442 302.408 125.599 302.319 125.733C302.23 125.867 302.103 125.971 301.955 126.032C301.807 126.093 301.644 126.109 301.487 126.077C301.33 126.045 301.186 125.967 301.074 125.852C300.961 125.738 300.885 125.592 300.855 125.434C300.825 125.275 300.842 125.112 300.904 124.963C300.967 124.815 301.072 124.689 301.205 124.601C301.339 124.512 301.496 124.466 301.656 124.468C301.762 124.468 301.867 124.489 301.964 124.53C302.062 124.571 302.15 124.631 302.224 124.706C302.299 124.782 302.357 124.872 302.397 124.97C302.437 125.069 302.456 125.174 302.455 125.28Z" fill="#263238"/>
<path d="M300.342 137.177C300.788 137.177 301.15 136.813 301.15 136.364C301.15 135.915 300.788 135.551 300.342 135.551C299.896 135.551 299.535 135.915 299.535 136.364C299.535 136.813 299.896 137.177 300.342 137.177Z" fill="#263238"/>
<path d="M299.122 162.136C299.568 162.136 299.93 161.772 299.93 161.323C299.93 160.875 299.568 160.511 299.122 160.511C298.676 160.511 298.315 160.875 298.315 161.323C298.315 161.772 298.676 162.136 299.122 162.136Z" fill="#263238"/>
<path d="M194.603 87.9835H204.723L209.791 79.1564L204.723 70.338H194.603L189.544 79.1564L194.603 87.9835Z" stroke="#263238" stroke-linecap="round" stroke-linejoin="round"/>
<path d="M193.135 107.332L188.075 98.5139H177.956" stroke="#263238" stroke-linecap="round" stroke-linejoin="round"/>
<path d="M179.313 79.1567H189.432L194.492 70.3383L189.432 61.5112H179.313L174.253 70.3383L179.313 79.1567Z" stroke="#263238" stroke-linecap="round" stroke-linejoin="round"/>
<path d="M194.603 70.3383H204.723L209.791 61.5113L204.723 52.6929H194.603L189.544 61.5113L194.603 70.3383Z" stroke="#263238" stroke-linecap="round" stroke-linejoin="round"/>
<path d="M193.135 70.3382C193.133 70.0656 193.212 69.7986 193.361 69.5713C193.511 69.3439 193.724 69.1664 193.974 69.0613C194.224 68.9561 194.499 68.9282 194.765 68.981C195.031 69.0337 195.275 69.1648 195.466 69.3576C195.658 69.5503 195.788 69.7961 195.841 70.0635C195.893 70.331 195.865 70.6081 195.761 70.8596C195.656 71.1112 195.48 71.3257 195.254 71.4761C195.028 71.6265 194.763 71.7059 194.492 71.7042C194.132 71.7042 193.787 71.5603 193.532 71.3041C193.278 71.0479 193.135 70.7005 193.135 70.3382Z" fill="#263238"/>
<path d="M173.36 53.1856C174.109 53.1856 174.717 52.574 174.717 51.8196C174.717 51.0652 174.109 50.4536 173.36 50.4536C172.61 50.4536 172.002 51.0652 172.002 51.8196C172.002 52.574 172.61 53.1856 173.36 53.1856Z" fill="#263238"/>
<path d="M191.777 107.333C191.777 107.062 191.857 106.798 192.006 106.574C192.155 106.349 192.367 106.174 192.615 106.071C192.863 105.967 193.136 105.94 193.399 105.993C193.662 106.046 193.904 106.176 194.094 106.367C194.284 106.558 194.413 106.801 194.466 107.066C194.518 107.331 194.491 107.606 194.388 107.855C194.286 108.105 194.112 108.318 193.888 108.468C193.665 108.618 193.403 108.699 193.134 108.699C192.774 108.699 192.429 108.555 192.175 108.298C191.92 108.042 191.777 107.695 191.777 107.333Z" fill="#263238"/>
<path d="M177.955 99.8799C178.705 99.8799 179.313 99.2684 179.313 98.5139C179.313 97.7595 178.705 97.1479 177.955 97.1479C177.206 97.1479 176.598 97.7595 176.598 98.5139C176.598 99.2684 177.206 99.8799 177.955 99.8799Z" fill="#263238"/>
<path d="M219.567 61.745C219.567 61.4727 219.647 61.2066 219.798 60.9804C219.948 60.7541 220.162 60.578 220.412 60.4742C220.662 60.3704 220.937 60.3437 221.203 60.3974C221.468 60.4512 221.711 60.5829 221.902 60.7761C222.092 60.9692 222.222 61.2149 222.274 61.4821C222.325 61.7494 222.297 62.026 222.192 62.277C222.088 62.5281 221.911 62.7421 221.685 62.8921C221.46 63.0422 221.195 63.1213 220.924 63.1196C220.745 63.1196 220.568 63.084 220.403 63.0148C220.238 62.9456 220.088 62.8442 219.962 62.7165C219.835 62.5887 219.736 62.4371 219.668 62.2704C219.6 62.1036 219.566 61.9251 219.567 61.745Z" fill="#263238"/>
<path d="M187.972 99.8799C188.722 99.8799 189.329 99.2684 189.329 98.5139C189.329 97.7595 188.722 97.1479 187.972 97.1479C187.222 97.1479 186.615 97.7595 186.615 98.5139C186.615 99.2684 187.222 99.8799 187.972 99.8799Z" fill="#263238"/>
<path d="M208.4 61.745C208.4 61.4731 208.48 61.2073 208.63 60.9813C208.78 60.7552 208.993 60.579 209.243 60.475C209.493 60.371 209.767 60.3437 210.032 60.3968C210.297 60.4498 210.54 60.5807 210.731 60.773C210.922 60.9652 211.053 61.2102 211.105 61.4768C211.158 61.7435 211.131 62.0199 211.028 62.271C210.924 62.5222 210.749 62.7369 210.524 62.888C210.3 63.039 210.036 63.1196 209.766 63.1196C209.403 63.1196 209.056 62.9748 208.8 62.717C208.544 62.4592 208.4 62.1096 208.4 61.745Z" fill="#263238"/>
<path d="M193.135 87.9835C193.133 87.7109 193.212 87.4439 193.361 87.2165C193.511 86.9892 193.724 86.8116 193.974 86.7065C194.224 86.6014 194.499 86.5735 194.765 86.6262C195.031 86.679 195.275 86.8101 195.466 87.0028C195.658 87.1956 195.788 87.4413 195.841 87.7088C195.893 87.9762 195.865 88.2534 195.761 88.5049C195.656 88.7564 195.48 88.971 195.254 89.1214C195.028 89.2718 194.763 89.3512 194.492 89.3495C194.133 89.3472 193.789 89.2026 193.535 88.9469C193.281 88.6912 193.137 88.3451 193.135 87.9835Z" fill="#263238"/>
<path d="M209.791 61.745H220.933" stroke="#263238" stroke-linecap="round" stroke-linejoin="round"/>
<path d="M194.492 87.9836L187.972 98.5139" stroke="#263238" stroke-linecap="round" stroke-linejoin="round"/>
<path d="M179.313 61.5112L173.36 51.8196" stroke="#263238" stroke-linecap="round" stroke-linejoin="round"/>
<path d="M167.647 130.615C168.559 129.788 169.583 129.096 170.688 128.557C170.733 128.835 170.881 129.085 171.104 129.255C171.326 129.426 171.604 129.504 171.882 129.474C172.492 129.379 173.179 128.774 173.6 129.214C173.772 129.387 173.806 129.664 173.987 129.828C174.537 130.338 175.473 129.24 176.091 129.655C176.255 129.768 176.341 129.958 176.512 130.07C176.648 130.129 176.794 130.16 176.942 130.16C177.09 130.16 177.236 130.129 177.371 130.07C178.906 129.718 180.481 129.582 182.053 129.664L189.26 129.716L188.711 129.431" stroke="#263238" stroke-linecap="round" stroke-linejoin="round"/>
<path d="M167.26 136.666C167.321 136.382 167.477 136.128 167.704 135.948C167.931 135.768 168.212 135.674 168.501 135.681C168.79 135.688 169.066 135.797 169.284 135.988C169.501 136.179 169.646 136.44 169.692 136.727C169.87 136.643 170.029 136.523 170.159 136.374C170.29 136.225 170.388 136.051 170.448 135.862C170.911 136.908 172.346 136.995 173.488 136.917L178.583 136.554C180.112 136.442 181.898 136.165 182.586 134.825C183.341 136.212 183.642 137.803 183.445 139.372C183.917 138.243 184.532 137.179 185.274 136.208C185.429 136.761 185.584 137.315 185.73 137.868C189.278 135.369 194.131 137.003 198.426 136.459" stroke="#263238" stroke-linecap="round" stroke-linejoin="round"/>
<path d="M167.716 144.681C167.7 144.522 167.742 144.363 167.836 144.233C167.929 144.104 168.067 144.014 168.223 143.981C168.271 144.138 168.35 144.283 168.456 144.408C168.562 144.532 168.692 144.634 168.839 144.706C168.985 144.778 169.145 144.819 169.308 144.827C169.471 144.834 169.634 144.808 169.786 144.75C170.399 144.491 170.924 144.059 171.298 143.505C171.426 143.61 171.575 143.686 171.734 143.728C171.894 143.77 172.06 143.778 172.223 143.75C172.386 143.722 172.541 143.66 172.677 143.567C172.814 143.474 172.929 143.353 173.016 143.211C173.399 143.836 173.716 144.5 173.961 145.191C174.425 143.998 175.997 143.808 177.277 143.817H187.585" stroke="#263238" stroke-linecap="round" stroke-linejoin="round"/>
<path d="M247.4 50.5833C244.939 50.5232 242.526 51.273 240.527 52.7187C238.053 54.3095 235.7 56.9896 236.318 59.8772C236.937 62.7648 240.321 64.2951 243.302 64.8743C245.865 65.3767 248.474 65.6086 251.085 65.566C252.091 65.5812 253.094 65.4738 254.074 65.2461C255.065 64.9636 256.026 64.5843 256.944 64.1135L263.592 60.9666C264.503 60.5343 265.525 59.981 265.774 58.9954C266.084 57.7764 265.044 56.6438 264.056 55.9089C260.325 53.2227 255.722 52.0554 251.171 52.6409" stroke="#263238" stroke-linecap="round" stroke-linejoin="round"/>
<path d="M239.505 57.0503C239.896 56.6084 240.402 56.2851 240.966 56.1166C240.854 56.4473 240.854 56.806 240.966 57.1367C241.12 57.448 241.593 57.6036 241.825 57.3442C242.057 57.0849 242.108 56.6699 242.366 56.7996L242.675 57.4912C243.096 57.3442 243.422 56.9984 243.835 56.8169C244.305 56.6583 244.804 56.611 245.295 56.6785C248.983 56.8691 252.681 56.7563 256.351 56.3414" stroke="#263238" stroke-linecap="round" stroke-linejoin="round"/>
<path d="M245.519 60.7678C245.572 60.5911 245.666 60.4295 245.793 60.2959C245.92 60.1623 246.076 60.0604 246.249 59.9984C246.051 60.2145 246.292 60.5863 246.584 60.6381C246.88 60.6435 247.174 60.5814 247.443 60.4566C247.769 60.3719 248.103 60.3255 248.439 60.3183L254.702 59.886" stroke="#263238" stroke-linecap="round" stroke-linejoin="round"/>
<path d="M248.19 69.5515C246.379 76.05 242.622 81.8293 237.432 86.1033C232.241 90.3773 225.869 92.9386 219.181 93.439" stroke="#263238" stroke-linecap="round" stroke-linejoin="round"/>
<path d="M219.284 91.563C218.069 92.3184 216.986 93.2707 216.08 94.3814C216.616 94.2684 217.172 94.3072 217.688 94.4934C218.204 94.6795 218.658 95.0059 219 95.4362" stroke="#263238" stroke-linecap="round" stroke-linejoin="round"/>
<path d="M246.129 93.6208L246.91 95.3499L248.027 94.0185C248.236 94.1754 248.382 94.4023 248.439 94.6583C248.525 94.9004 248.654 95.1684 248.895 95.2376C249.135 95.3067 249.436 94.9782 249.255 94.7966C249.413 94.9043 249.593 94.9763 249.781 95.0076C249.969 95.039 250.162 95.0289 250.346 94.9782C250.51 94.9782 250.656 94.8572 250.819 94.8139C251.013 94.771 251.213 94.7536 251.412 94.7621H263.017" stroke="#263238" stroke-linecap="round" stroke-linejoin="round"/>
<path d="M246.669 103.131C246.724 102.992 246.813 102.87 246.929 102.777C247.044 102.683 247.181 102.621 247.327 102.597C247.473 102.573 247.623 102.587 247.762 102.638C247.901 102.689 248.025 102.775 248.121 102.889C248.159 102.999 248.218 103.102 248.293 103.191C248.396 103.265 248.523 103.297 248.649 103.281C248.775 103.265 248.89 103.202 248.972 103.105C249.161 102.932 249.281 102.698 249.478 102.543C250.02 102.119 250.793 102.448 251.454 102.629C252.301 102.808 253.17 102.854 254.031 102.768L260.62 102.422" stroke="#263238" stroke-linecap="round" stroke-linejoin="round"/>
<path d="M246.876 110.479C247.095 110.485 247.31 110.417 247.486 110.285C247.662 110.153 247.789 109.966 247.846 109.753C247.955 109.771 248.056 109.823 248.136 109.9C248.216 109.977 248.27 110.076 248.293 110.185C248.609 109.989 248.878 109.726 249.083 109.416C253.327 109.468 257.576 109.468 261.832 109.416" stroke="#263238" stroke-linecap="round" stroke-linejoin="round"/>
<path d="M246.867 115.969C247.13 116.079 247.424 116.086 247.692 115.99C247.96 115.895 248.184 115.702 248.319 115.451C248.588 115.67 248.776 115.975 248.852 116.315C249.021 116.2 249.212 116.121 249.413 116.084C249.614 116.046 249.821 116.052 250.02 116.099C250.183 116.099 250.346 116.211 250.51 116.255C250.922 116.361 251.348 116.399 251.772 116.367L266.582 116.151" stroke="#263238" stroke-linecap="round" stroke-linejoin="round"/>
<path d="M207.102 150.923L213.829 150.266C213.894 150.274 213.961 150.266 214.023 150.242C214.084 150.218 214.139 150.179 214.182 150.129C214.224 150.078 214.254 150.017 214.267 149.952C214.281 149.887 214.277 149.819 214.258 149.756V145.433C214.275 145.289 214.238 145.145 214.155 145.027C214.1 144.976 214.034 144.937 213.964 144.911C213.893 144.886 213.818 144.875 213.743 144.88C212.282 144.75 208.992 144.015 207.73 145.009C206.467 146.004 207.111 149.444 207.102 150.923Z" stroke="#263238" stroke-linecap="round" stroke-linejoin="round"/>
<path d="M209.027 147.067C209.113 147.473 209.19 147.88 209.276 148.295C210.295 148.081 211.341 148.025 212.377 148.131" stroke="#263238" stroke-linecap="round" stroke-linejoin="round"/>
<path d="M212.454 152.791C212.391 152.888 212.357 153.001 212.355 153.117C212.352 153.233 212.382 153.348 212.441 153.448C212.5 153.548 212.586 153.629 212.688 153.682C212.791 153.736 212.906 153.759 213.021 153.75C213.477 153.664 213.837 153.05 214.258 153.24" stroke="#263238" stroke-linecap="round" stroke-linejoin="round"/>
<path d="M207.824 142.822C207.909 142.694 208.029 142.593 208.17 142.532C208.311 142.471 208.467 142.452 208.618 142.479C208.77 142.506 208.91 142.576 209.022 142.681C209.134 142.787 209.213 142.923 209.25 143.073L210.865 142.883" stroke="#263238" stroke-linecap="round" stroke-linejoin="round"/>
<path d="M221.225 157.157C223.516 157.157 225.807 157.157 228.097 157.157C229.878 157.18 231.658 157.073 233.423 156.837C233.621 156.826 233.81 156.747 233.956 156.612C234.078 156.436 234.13 156.22 234.102 156.007V145.494C234.102 145.373 223.579 145.036 222.35 145.892C219.876 147.638 221.225 154.468 221.225 157.157Z" stroke="#263238" stroke-linecap="round" stroke-linejoin="round"/>
<path d="M224.953 148.606L226.594 148.649C226.299 149.772 225.832 150.843 225.211 151.822C224.987 152.125 224.721 152.505 224.884 152.842C225.743 152.981 226.748 153.058 227.29 152.393C227.994 151.528 227.376 150.171 227.908 149.202L228.114 151.251L228.827 151.934C229.013 152.143 229.246 152.303 229.506 152.401C229.636 152.447 229.778 152.446 229.908 152.399C230.038 152.352 230.148 152.261 230.219 152.142" stroke="#263238" stroke-linecap="round" stroke-linejoin="round"/>
<path d="M229.729 158.92C230.271 158.721 230.494 159.741 231.052 159.888C231.611 160.035 231.911 159.292 232.384 158.963C232.608 158.814 232.878 158.751 233.145 158.786C233.412 158.82 233.657 158.951 233.836 159.153" stroke="#263238" stroke-linecap="round" stroke-linejoin="round"/>
<path d="M225.297 142.286C225.812 142.416 225.606 143.28 225.993 143.652C226.379 144.024 227.024 143.652 227.462 143.298C227.9 142.943 228.699 142.788 228.862 143.298" stroke="#263238" stroke-linecap="round" stroke-linejoin="round"/>
<path d="M357.493 168.413H151.635V183.041H357.493V168.413Z" fill="#BFBFBF" stroke="#263238" stroke-linecap="round" stroke-linejoin="round"/>
<path d="M319.404 174.171H184.896V177.283H319.404V174.171Z" fill="#263238"/>
<path d="M261.179 175.753C261.179 176.202 261.046 176.642 260.798 177.016C260.55 177.39 260.197 177.681 259.784 177.853C259.371 178.026 258.917 178.071 258.479 177.983C258.041 177.895 257.638 177.679 257.322 177.361C257.006 177.043 256.791 176.637 256.704 176.196C256.617 175.755 256.661 175.298 256.832 174.883C257.003 174.467 257.293 174.112 257.664 173.862C258.036 173.612 258.473 173.479 258.92 173.479C259.519 173.479 260.093 173.719 260.517 174.145C260.941 174.571 261.179 175.15 261.179 175.753Z" fill="#275F7A" stroke="#263238" stroke-linecap="round" stroke-linejoin="round"/>
<path d="M350.827 172.926H345.261V178.528H350.827V172.926Z" stroke="#263238" stroke-linecap="round" stroke-linejoin="round"/>
<path d="M341.49 172.926H335.923V178.528H341.49V172.926Z" stroke="#263238" stroke-linecap="round" stroke-linejoin="round"/>
<path d="M167.707 172.865H158.009V178.588H167.707V172.865Z" stroke="#263238" stroke-linecap="round" stroke-linejoin="round"/>
<path d="M157.897 32.5403H194.492" stroke="white" stroke-linecap="round" stroke-linejoin="round"/>
<path d="M352.279 32.4108C352.281 32.8407 352.156 33.2614 351.92 33.6196C351.683 33.9778 351.347 34.2573 350.952 34.4226C350.558 34.5879 350.124 34.6316 349.705 34.5482C349.286 34.4647 348.901 34.2579 348.599 33.9538C348.297 33.6498 348.091 33.2624 348.008 32.8406C347.925 32.4189 347.969 31.9819 348.133 31.585C348.297 31.1881 348.575 30.8493 348.931 30.6115C349.287 30.3737 349.705 30.2477 350.132 30.2494C350.701 30.2494 351.248 30.4771 351.65 30.8825C352.053 31.2878 352.279 31.8375 352.279 32.4108V32.4108Z" stroke="white" stroke-linecap="round" stroke-linejoin="round"/>
<path d="M343.784 32.5404C343.784 32.9679 343.658 33.3858 343.422 33.7412C343.186 34.0966 342.85 34.3737 342.458 34.5373C342.065 34.7008 341.634 34.7436 341.217 34.6602C340.8 34.5769 340.418 34.371 340.117 34.0687C339.817 33.7665 339.613 33.3813 339.53 32.9621C339.447 32.5428 339.489 32.1082 339.652 31.7133C339.814 31.3183 340.09 30.9808 340.443 30.7433C340.796 30.5058 341.211 30.379 341.636 30.379C342.206 30.379 342.752 30.6067 343.155 31.0121C343.557 31.4174 343.784 31.9672 343.784 32.5404V32.5404Z" stroke="white" stroke-linecap="round" stroke-linejoin="round"/>
<path d="M335.288 32.6787C335.286 33.1058 335.159 33.5228 334.922 33.8771C334.685 34.2314 334.349 34.5071 333.956 34.6694C333.563 34.8316 333.132 34.8732 332.716 34.7888C332.3 34.7045 331.918 34.4979 331.619 34.1953C331.319 33.8927 331.115 33.5076 331.033 33.0885C330.951 32.6695 330.994 32.2354 331.157 31.8409C331.32 31.4465 331.595 31.1094 331.948 30.8723C332.301 30.6352 332.716 30.5087 333.14 30.5087C333.423 30.5087 333.703 30.5649 333.964 30.674C334.225 30.7832 334.462 30.9432 334.662 31.1448C334.861 31.3464 335.019 31.5857 335.127 31.8489C335.234 32.1121 335.289 32.3941 335.288 32.6787V32.6787Z" stroke="white" stroke-linecap="round" stroke-linejoin="round"/>
<path d="M172.123 318.577H151.781L140.768 315.067L137.332 313.969L136.327 324.404L15.8729 324.628C15.8729 324.628 17.7113 319.96 20.7093 313.113C27.1778 298.337 39.0325 273.387 49.401 263.193C57.8195 254.92 78.8487 254.686 78.8487 254.686C80.9956 253.254 83.5144 252.49 86.0903 252.49C89.956 252.681 119.18 255.871 120.993 256.813C122.255 257.549 123.338 258.559 124.163 259.77C124.163 259.77 134.402 255.214 144.462 259.32C154.521 263.427 172.123 318.577 172.123 318.577Z" fill="#F2F6FA"/>
<path opacity="0.2" d="M140.768 315.066L137.332 313.968L136.327 324.404L15.8729 324.628C15.8729 324.628 17.7113 319.96 20.7093 313.112C25.3567 313 30.5968 312.758 30.5968 312.758L33.2941 303.879C33.2941 303.879 37.5292 299.375 42.8208 302.029C42.6443 301.357 42.6811 300.647 42.9261 299.997C43.171 299.347 43.6118 298.791 44.1867 298.406C46.2312 297.04 54.6154 301.424 54.6154 301.424C54.6154 301.424 58.6528 293.643 60.0273 288.551C61.4017 283.458 62.3123 295.752 62.3123 295.752C62.3123 295.752 65.7484 290.098 65.7484 288.551C65.7484 287.003 72.0881 303.879 72.0881 303.879C72.0881 303.879 80.4723 304.891 82.7401 305.755C85.008 306.62 107.583 307.484 114.851 305.755C122.118 304.026 109.697 314.401 109.697 314.401C109.697 314.401 122.462 318.723 129.678 315.888C136.894 313.052 140.124 310.017 140.124 310.017C140.124 310.017 140.39 312.118 140.768 315.066Z" fill="black" fill-opacity="0.7"/>
<path d="M172.123 318.577H151.781L140.768 315.067L137.332 313.969L136.327 324.404L15.8729 324.628C15.8729 324.628 17.7113 319.96 20.7093 313.113C27.1778 298.337 39.0325 273.387 49.401 263.193C57.8195 254.92 78.8487 254.686 78.8487 254.686C80.9956 253.254 83.5144 252.49 86.0903 252.49C89.956 252.681 119.18 255.871 120.993 256.813C122.255 257.549 123.338 258.559 124.163 259.77C124.163 259.77 134.402 255.214 144.462 259.32C154.521 263.427 172.123 318.577 172.123 318.577Z" stroke="#263238" stroke-linecap="round" stroke-linejoin="round"/>
<path d="M134.136 291.914C132.347 294.452 130.307 296.802 128.046 298.925" stroke="#263238" stroke-linecap="round" stroke-linejoin="round"/>
<path d="M122.092 303.965C113.341 310.472 103.055 314.569 92.2495 315.853" stroke="#263238" stroke-linecap="round" stroke-linejoin="round"/>
<path d="M159.709 301.017C159.709 301.017 162.836 299.064 165.577 299.703C168.317 300.343 170.585 303.066 170.585 303.066C170.585 303.066 193.332 301.173 198.495 301.337C203.658 301.502 215.212 304.908 215.212 304.908C215.212 304.908 220.813 303.767 221.414 304C222.015 304.234 220.203 323.418 220.203 323.418H146.326C142.701 323.418 140.012 318.136 137.289 313.986C141.98 297.473 144.379 280.386 144.419 263.211" fill="#F2F6FA"/>
<path opacity="0.2" d="M179.983 323.401H146.343C142.718 323.401 140.029 318.118 137.306 313.969C140 304.653 141.916 295.127 143.036 285.49C143.036 285.49 146.61 290.825 144.436 297.006L146.61 290.825C146.61 290.825 148.697 297.447 146.61 303.058C144.522 308.669 143.036 310.277 143.036 310.277C143.036 310.277 145.613 313.666 148.345 312.758C151.077 311.85 154.049 317.349 154.049 317.349C154.049 317.349 160.612 317.6 161.978 317.349C162.605 317.237 171.101 320.185 179.983 323.401Z" fill="black" fill-opacity="0.7"/>
<path d="M159.709 301.017C159.709 301.017 162.836 299.064 165.577 299.703C168.317 300.343 170.585 303.066 170.585 303.066C170.585 303.066 193.332 301.173 198.495 301.337C203.658 301.502 215.212 304.908 215.212 304.908C215.212 304.908 220.813 303.767 221.414 304C222.015 304.234 220.203 323.418 220.203 323.418H146.326C142.701 323.418 140.012 318.136 137.289 313.986C141.98 297.473 144.379 280.386 144.419 263.211" stroke="#263238" stroke-linecap="round" stroke-linejoin="round"/>
<path d="M117.479 241.277V259.744C115.153 261.338 112.745 262.807 110.264 264.144C105.255 266.816 98.8298 269.461 95.0071 267.957C88.0747 265.216 83.5819 254.686 83.5819 254.686C91.0641 248.946 91.9661 241.277 93.1 237.629L117.479 241.277Z" fill="#F2F6FA" stroke="#263238" stroke-linecap="round" stroke-linejoin="round"/>
<path d="M79.9572 256.095C79.9572 256.095 86.3054 270.006 94.0109 272.522C101.716 275.038 114.765 265.216 114.765 265.216" stroke="#263238" stroke-linecap="round" stroke-linejoin="round"/>
<path d="M45.2949 272.928C45.2949 272.928 57.3214 282.352 59.3401 285.525C61.3589 288.698 59.3401 318.576 59.3401 318.576" stroke="#263238" stroke-linecap="round" stroke-linejoin="round"/>
<path d="M28.9219 303.334C36.0089 298.735 40.9913 303.767 45.2951 304.674C49.5988 305.582 59.1169 300.689 66.2555 304.674C73.3941 308.66 73.3941 307.268 73.3941 307.268C73.3941 307.268 80.8677 313.009 77.0106 324.498L15.8474 324.611C15.8474 324.611 11.767 315.836 25.1765 303.317" fill="#F2F6FA"/>
<path d="M28.9219 303.334C36.0089 298.735 40.9913 303.767 45.2951 304.674C49.5988 305.582 59.1169 300.689 66.2555 304.674C73.3941 308.66 73.394 307.268 73.394 307.268C73.394 307.268 80.8677 313.009 77.0106 324.498L15.8474 324.611C15.8474 324.611 11.767 315.836 25.1765 303.317" stroke="#263238" stroke-linecap="round" stroke-linejoin="round"/>
<path d="M88.8564 285.55L104.998 315.265L105.504 318.602L102.927 316.294L86.2793 286.795C86.5241 286.341 86.905 285.977 87.3677 285.753C87.8304 285.53 88.3513 285.459 88.8564 285.55Z" fill="#275F7A" stroke="#263238" stroke-linecap="round" stroke-linejoin="round"/>
<path d="M73.5313 308.824C74.7503 308.468 76.0025 308.239 77.2681 308.141C78.634 308.141 87.0353 301.891 89.8873 301.424C92.7393 300.957 97.8677 305.236 100.479 305.919C103.091 306.602 102.927 310.026 104.457 311.392C105.986 312.758 103.778 314.297 101.879 312.758C102.015 313.292 102.023 313.851 101.904 314.388C101.785 314.926 101.541 315.428 101.192 315.853C101.192 315.853 101.708 317.721 101.192 318.577H70.9542C70.9542 318.577 70.4989 312.758 73.5313 308.824Z" fill="#F2F6FA" stroke="#263238" stroke-linecap="round" stroke-linejoin="round"/>
<path d="M101.939 312.758L99.2163 310.052L92.2495 307.804" stroke="#263238" stroke-linecap="round" stroke-linejoin="round"/>
<path d="M101.261 315.853L97.0947 313.968L91.3993 312.888" stroke="#263238" stroke-linecap="round" stroke-linejoin="round"/>
<path d="M91.3993 317.349L97.0947 317.608L101.261 318.577" stroke="#263238" stroke-linecap="round" stroke-linejoin="round"/>
<path d="M89.9131 301.424C87.336 303.698 89.9131 306.093 88.6847 307.804C87.4563 309.516 86.1076 310.026 87.1556 312.758" stroke="#263238" stroke-linecap="round" stroke-linejoin="round"/>
<path d="M126.688 320.02H264.289C264.289 321.242 263.806 322.414 262.947 323.278C262.089 324.143 260.924 324.628 259.71 324.628H137.727C137.249 324.627 136.773 324.551 136.318 324.403L126.517 321.222C126.377 321.179 126.257 321.088 126.178 320.964C126.099 320.84 126.068 320.692 126.088 320.546C126.109 320.401 126.181 320.268 126.291 320.171C126.401 320.074 126.542 320.021 126.688 320.02Z" fill="#275F7A"/>
<path opacity="0.2" d="M264.289 320.02C264.287 321.242 263.805 322.414 262.948 323.28L262.811 323.401C261.969 324.19 260.861 324.628 259.71 324.628H137.727C137.249 324.628 136.773 324.552 136.318 324.404L126.517 321.222C126.375 321.18 126.254 321.087 126.175 320.961C126.097 320.835 126.066 320.685 126.089 320.538C126.112 320.391 126.187 320.258 126.301 320.163C126.414 320.068 126.558 320.017 126.706 320.02H264.289Z" fill="black" fill-opacity="0.7"/>
<path opacity="0.2" d="M264.288 320.02C264.287 321.242 263.805 322.414 262.948 323.279L262.811 323.4H184.08C183.189 323.4 182.334 323.045 181.702 322.411C181.071 321.777 180.715 320.917 180.713 320.02H264.288Z" fill="black" fill-opacity="0.7"/>
<path d="M126.688 320.02H264.289C264.289 321.242 263.806 322.414 262.947 323.278C262.089 324.143 260.924 324.628 259.71 324.628H137.727C137.249 324.627 136.773 324.551 136.318 324.403L126.517 321.222C126.377 321.179 126.257 321.088 126.178 320.964C126.099 320.84 126.068 320.692 126.088 320.546C126.109 320.401 126.181 320.268 126.291 320.171C126.401 320.074 126.542 320.021 126.688 320.02V320.02Z" stroke="#263238" stroke-linecap="round" stroke-linejoin="round"/>
<path d="M180.713 320.02C180.715 320.917 181.071 321.777 181.702 322.411C182.334 323.045 183.189 323.4 184.08 323.4H197.146" stroke="#263238" stroke-linecap="round" stroke-linejoin="round"/>
<path d="M288.917 263.176V263.289L272.904 319.355C272.666 320.075 272.215 320.704 271.612 321.16C271.009 321.616 270.282 321.876 269.528 321.905H186.116C185.8 321.93 185.483 321.875 185.194 321.745C184.905 321.615 184.653 321.413 184.461 321.159C184.27 320.905 184.145 320.607 184.098 320.292C184.051 319.976 184.083 319.654 184.192 319.355L200.187 263.289C200.425 262.568 200.875 261.938 201.479 261.482C202.082 261.026 202.809 260.767 203.563 260.738H286.975C287.281 260.711 287.59 260.76 287.872 260.881C288.155 261.003 288.403 261.192 288.595 261.434C288.787 261.675 288.917 261.96 288.973 262.264C289.03 262.568 289.01 262.882 288.917 263.176Z" fill="#275F7A"/>
<path opacity="0.4" d="M288.917 263.176V263.289L272.905 319.355C272.666 320.075 272.215 320.704 271.612 321.16C271.009 321.616 270.282 321.875 269.529 321.905H186.666V321.793L202.653 265.727C202.891 265.007 203.342 264.377 203.945 263.921C204.549 263.466 205.275 263.206 206.029 263.176H288.917Z" fill="#F2F6FA"/>
<path d="M288.917 263.176V263.289L272.904 319.355C272.666 320.075 272.215 320.704 271.612 321.16C271.009 321.616 270.282 321.876 269.528 321.905H186.116C185.8 321.93 185.483 321.875 185.194 321.745C184.905 321.615 184.653 321.413 184.461 321.159C184.27 320.905 184.145 320.607 184.098 320.292C184.051 319.976 184.083 319.654 184.192 319.355L200.187 263.289C200.425 262.568 200.875 261.938 201.479 261.482C202.082 261.026 202.809 260.767 203.563 260.738H286.975C287.281 260.711 287.59 260.76 287.872 260.881C288.155 261.003 288.403 261.192 288.595 261.434C288.787 261.675 288.917 261.96 288.973 262.264C289.03 262.568 289.01 262.882 288.917 263.176Z" stroke="#263238" stroke-linecap="round" stroke-linejoin="round"/>
<path d="M242.555 292.355C241.844 293.826 240.75 295.076 239.388 295.97C238.026 296.864 236.448 297.368 234.824 297.43C231.319 297.43 229.248 294.698 230.211 291.326C230.786 289.601 231.869 288.092 233.315 287C234.762 285.909 236.504 285.286 238.311 285.214H238.466C238.304 285.547 238.172 285.894 238.071 286.251C237.083 289.597 239.102 292.303 242.555 292.355Z" fill="#F2F6FA" stroke="#263238" stroke-linecap="round" stroke-linejoin="round"/>
<path d="M187.096 319.156L202.704 264.43C202.843 264.01 203.106 263.643 203.458 263.378C203.809 263.112 204.232 262.96 204.671 262.943H285.524" stroke="#263238" stroke-linecap="round" stroke-linejoin="round"/>
<path d="M148.345 324.628H33.2343L34.6259 321.706C34.6259 321.706 45.5013 322.726 54.1174 320.02C57.9229 318.827 63.7815 318.291 69.6573 318.36C73.3597 318.412 82.371 318.447 87.9633 318.421C89.9563 318.421 91.5197 318.421 92.2585 318.369C92.542 318.369 92.8254 318.369 93.1175 318.369C94.7123 318.349 96.3047 318.5 97.868 318.818C99.3765 318.647 100.894 318.572 102.412 318.594C105.067 318.594 116.483 318.55 119.593 318.594C123.691 318.646 128.424 319.458 132.917 320.081L133.037 320.038V320.098C138.466 320.859 143.551 321.378 146.781 320.038L148.345 324.628Z" fill="#F2F6FA"/>
<path opacity="0.4" d="M148.345 324.628H59.1168L60.9294 321.49C60.9294 321.49 65.8001 324.351 70.5592 322.354C75.3182 320.357 80.1116 319.268 87.9632 318.403C89.6754 318.219 91.4009 318.196 93.1174 318.334C96.5352 318.598 99.8957 319.367 103.091 320.616C103.091 320.616 107.772 318.559 119.593 318.559C123.69 318.611 128.424 319.423 132.916 320.046L133.037 320.003V320.063C138.466 320.824 143.551 321.343 146.781 320.003L148.345 324.628Z" fill="#275F7A"/>
<path d="M60.9294 321.49L34.6602 321.706L33.2686 324.628H59.1169L60.9294 321.49Z" fill="#275F7A"/>
<path d="M59.8556 323.34L60.9294 321.489C63.2519 322.507 65.7582 323.031 68.2913 323.028C72.1398 322.916 78.2217 318.118 89.9132 318.351" stroke="#263238" stroke-linecap="round" stroke-linejoin="round"/>
<path d="M97.8422 318.801C99.9983 319.596 103.065 320.634 103.065 320.634C103.065 320.634 107.034 318.334 115.753 318.576" stroke="#263238" stroke-linecap="round" stroke-linejoin="round"/>
<path d="M60.9293 321.49C60.9293 321.49 47.3394 321.732 41.9017 321.853" stroke="#263238" stroke-linecap="round" stroke-linejoin="round"/>
<path d="M101.253 324.628C101.327 324.064 101.575 323.539 101.961 323.124C102.348 322.71 102.854 322.429 103.409 322.32C105.333 322 106.579 324.394 106.579 324.394" stroke="#263238" stroke-linecap="round" stroke-linejoin="round"/>
<path d="M103.065 320.633L103.409 322.319" stroke="#263238" stroke-linecap="round" stroke-linejoin="round"/>
<path d="M104.998 322.319C104.998 322.319 111.114 319.51 117.024 320.02" stroke="#263238" stroke-linecap="round" stroke-linejoin="round"/>
<path d="M102.481 322.657C101.94 322.233 92.7567 319.38 83.3589 321.489" stroke="#263238" stroke-linecap="round" stroke-linejoin="round"/>
<path d="M101.252 323.823C101.252 323.823 93.5212 322.345 86.7949 323.374" stroke="#263238" stroke-linecap="round" stroke-linejoin="round"/>
<path d="M105.857 323.391C110.989 321.951 116.36 321.586 121.637 322.319C126.835 323.097 132.086 323.45 137.34 323.374" stroke="#263238" stroke-linecap="round" stroke-linejoin="round"/>
<path d="M148.345 324.628H33.2343L34.6259 321.706C34.6259 321.706 45.5013 322.726 54.1174 320.02C57.9229 318.827 63.7815 318.291 69.6573 318.36C73.3597 318.412 82.371 318.447 87.9633 318.421C89.9563 318.421 91.5197 318.421 92.2585 318.369C92.542 318.369 92.8254 318.369 93.1175 318.369C94.7123 318.349 96.3047 318.5 97.868 318.818C99.3765 318.647 100.894 318.572 102.412 318.594C105.067 318.594 116.483 318.55 119.593 318.594C123.691 318.646 128.424 319.458 132.917 320.081L133.037 320.038V320.098C138.466 320.859 143.551 321.378 146.781 320.038L148.345 324.628Z" stroke="#263238" stroke-linecap="round" stroke-linejoin="round"/>
<path d="M117.48 256.675V259.744C115.153 261.338 112.745 262.807 110.264 264.144C104.757 259.052 103.976 249.378 103.976 249.378L117.48 256.675Z" fill="#263238"/>
<path d="M94.011 238.995C87.5339 229.355 88.8568 211.329 97.1808 201.491C109.413 187.122 141.335 197.618 141.309 217.917C141.284 220.739 141.043 223.554 140.588 226.338C140.167 229.018 137.856 231.724 137.152 234.396C136.447 237.067 136.731 241.312 136.447 243.906C135.812 249.811 127.694 261.525 125.495 262.796C122.419 264.525 105.797 259.831 102.172 249.102" fill="#F2F6FA"/>
<path d="M94.011 238.995C87.5339 229.355 88.8568 211.329 97.1808 201.491C109.413 187.122 141.335 197.618 141.309 217.917C141.284 220.739 141.043 223.554 140.588 226.338C140.167 229.018 137.856 231.724 137.152 234.396C136.447 237.067 136.731 241.312 136.447 243.906C135.812 249.811 127.694 261.525 125.495 262.796C122.419 264.525 105.797 259.831 102.172 249.102" stroke="#263238" stroke-linecap="round" stroke-linejoin="round"/>
<path d="M116.664 227.081C116.664 227.081 121.191 225.421 125.254 227.081" stroke="#263238" stroke-linecap="round" stroke-linejoin="round"/>
<path d="M134.523 227.081C134.523 227.081 137.822 225.421 140.029 227.081" stroke="#263238" stroke-linecap="round" stroke-linejoin="round"/>
<path d="M120.898 234.828C120.658 235.995 119.868 236.825 119.18 236.678C118.493 236.531 118.038 235.45 118.278 234.274C118.519 233.099 119.309 232.277 120.039 232.433C120.77 232.589 121.139 233.678 120.898 234.828Z" fill="#263238"/>
<path d="M135.468 234.828C135.227 235.995 134.437 236.825 133.75 236.678C133.062 236.531 132.607 235.45 132.848 234.274C133.088 233.099 133.87 232.277 134.609 232.433C135.347 232.589 135.708 233.678 135.468 234.828Z" fill="#263238"/>
<path d="M133.088 228.854C133.088 228.854 130.932 232.614 130.709 235.77C130.485 238.926 134.145 245.462 133.088 247.511C132.032 249.56 127.539 249.456 126.061 248.202" fill="#F2F6FA"/>
<path d="M133.088 228.854C133.088 228.854 130.932 232.614 130.709 235.77C130.485 238.926 134.145 245.462 133.088 247.511C132.032 249.56 127.539 249.456 126.061 248.202" stroke="#263238" stroke-linecap="round" stroke-linejoin="round"/>
<path d="M126.86 252.335C123.892 252.757 120.865 252.323 118.132 251.081" stroke="#263238" stroke-linecap="round" stroke-linejoin="round"/>
<path d="M100.505 230.107C100.505 230.107 102.619 228.049 105.11 228.853C107.601 229.657 108.056 236.487 108.056 236.487L109.869 234.542C109.869 234.542 109.19 230.678 111.905 225.257C114.619 219.836 113.262 213.456 113.262 213.456C113.262 213.456 117.944 215.047 119.567 218.695C119.567 218.695 121.337 214.822 119.567 211.856C119.567 211.856 126.86 213.681 128.673 219.153C128.673 219.153 130.108 215.047 129.618 212.998C129.618 212.998 134.557 214.588 136.37 219.378C136.37 219.378 138.019 215.73 137.306 212.764C137.306 212.764 139.299 214.493 140.064 219.611C141.552 216.491 141.989 212.967 141.309 209.574C141.309 209.574 143.887 212.539 144.299 215.047C144.299 215.047 146.395 207.75 134.137 197.946C121.878 188.142 100.892 190.364 97.6276 197.946C97.6276 197.946 98.71 192.361 100.892 190.364C100.892 190.364 94.8787 193.061 95.0075 198.629C95.0075 198.629 89.6987 197.946 86.9841 201.369C88.6479 201.243 90.3207 201.318 91.9665 201.594C91.9665 201.594 84.7163 205.917 85.1716 216.188C85.6269 226.459 91.9665 241.26 91.9665 241.26L96.9318 239.799C96.9318 239.799 97.7221 232.813 100.505 230.107Z" fill="#263238"/>
<path d="M106.011 232.614C106.011 232.614 102.163 225.776 100.127 225.317C98.091 224.859 94.2339 227.6 95.1359 231.248C96.0379 234.897 96.7251 241.052 97.8591 241.735C98.993 242.418 100.806 246.525 102.618 245.384C102.857 245.26 103.063 245.082 103.221 244.864C103.378 244.645 103.483 244.393 103.527 244.126C103.57 243.86 103.551 243.587 103.471 243.33C103.391 243.072 103.252 242.837 103.065 242.643" fill="#F2F6FA"/>
<path d="M106.011 232.614C106.011 232.614 102.163 225.776 100.127 225.317C98.091 224.859 94.2339 227.6 95.1359 231.248C96.0379 234.897 96.7251 241.052 97.8591 241.735C98.993 242.418 100.806 246.525 102.618 245.384C102.857 245.26 103.063 245.082 103.221 244.864C103.378 244.645 103.483 244.393 103.527 244.126C103.57 243.86 103.551 243.587 103.471 243.33C103.391 243.072 103.252 242.837 103.065 242.643" stroke="#263238" stroke-linecap="round" stroke-linejoin="round"/>
<path d="M149.058 285.49C148.668 287.176 148.169 288.833 147.563 290.453" stroke="#263238" stroke-linecap="round" stroke-linejoin="round"/>
<path d="M146.18 293.755C144.811 296.897 142.803 299.715 140.287 302.029" stroke="#263238" stroke-linecap="round" stroke-linejoin="round"/>
<path d="M170.602 303.067C169.425 302.911 167.028 304.407 164.829 306.335" stroke="#263238" stroke-linecap="round" stroke-linejoin="round"/>
<path d="M163.214 307.865C161.496 309.654 160.165 311.548 160.165 312.758" stroke="#263238" stroke-linecap="round" stroke-linejoin="round"/>
<path d="M38.3112 298.406C38.3112 298.406 43.1991 299.772 43.242 303.991" stroke="#263238" stroke-linecap="round" stroke-linejoin="round"/>
<path d="M56.6255 275.375C57.4369 276.289 58.1751 277.266 58.8332 278.297" stroke="#263238" stroke-linecap="round" stroke-linejoin="round"/>
<path d="M60.766 281.859C61.7275 283.96 62.2452 286.238 62.2865 288.55C62.2865 295.666 60.2506 299.79 60.2506 299.79" stroke="#263238" stroke-linecap="round" stroke-linejoin="round"/>
<path d="M86.3051 268.398C87.6011 269.611 88.9883 270.721 90.4542 271.718" stroke="#263238" stroke-linecap="round" stroke-linejoin="round"/>
<path d="M94.7668 274.312C99.1565 276.542 104.835 278.22 110.728 276.741" stroke="#263238" stroke-linecap="round" stroke-linejoin="round"/>
<g opacity="0.2">
<path opacity="0.2" d="M103.976 198.309C105.51 198.072 107.062 197.971 108.614 198.006" stroke="#F2F6FA" stroke-linecap="round" stroke-linejoin="round"/>
<path opacity="0.2" d="M110.873 198.127C115.074 198.525 120.245 200.003 123.458 204.464" stroke="#F2F6FA" stroke-linecap="round" stroke-linejoin="round"/>
<path opacity="0.2" d="M114.172 194.842C114.172 194.842 122.05 194.928 127.693 198.897" stroke="#F2F6FA" stroke-linecap="round" stroke-linejoin="round"/>
<path opacity="0.2" d="M129.91 200.825C130.92 201.888 131.729 203.127 132.298 204.482" stroke="#F2F6FA" stroke-linecap="round" stroke-linejoin="round"/>
<path opacity="0.2" d="M101.94 201.689C101.94 201.689 109.671 204.43 112.36 209.332" stroke="#F2F6FA" stroke-linecap="round" stroke-linejoin="round"/>
<path opacity="0.2" d="M98.1943 204.465C99.8696 206.801 101.075 209.444 101.742 212.246" stroke="#F2F6FA" stroke-linecap="round" stroke-linejoin="round"/>
<path opacity="0.2" d="M102.224 216.093C102.234 217.126 102.139 218.157 101.94 219.171" stroke="#F2F6FA" stroke-linecap="round" stroke-linejoin="round"/>
<path opacity="0.2" d="M92.9887 207.655C92.5908 208.672 92.2608 209.714 92.0009 210.776" stroke="#F2F6FA" stroke-linecap="round" stroke-linejoin="round"/>
<path opacity="0.2" d="M91.3914 213.793C90.9394 216.489 90.9046 219.239 91.2881 221.946" stroke="#F2F6FA" stroke-linecap="round" stroke-linejoin="round"/>
</g>
<path d="M194.372 340H302.782V324.628H0.779907V340H61.84" fill="#F2F6FA"/>
<path d="M194.372 340H302.782V324.628H0.779907V340H61.84" stroke="#263238" stroke-linecap="round" stroke-linejoin="round"/>
<path d="M186.589 340H171.195" stroke="#263238" stroke-linecap="round" stroke-linejoin="round"/>
</svg>
